<svg width="35" height="35" viewBox="0 0 35 35" fill="none" xmlns="http://www.w3.org/2000/svg">
<rect x="35" y="35" width="35" height="35" rx="17.5" transform="rotate(-180 35 35)" fill="white"/>
<path d="M12.6122 18.3878L18.857 24.6327C18.9735 24.7491 19.1117 24.8415 19.2639 24.9045C19.416 24.9676 19.5791 25 19.7438 25C20.0764 25 20.3954 24.8679 20.6306 24.6327C20.747 24.5162 20.8394 24.378 20.9024 24.2258C20.9654 24.0737 20.9979 23.9106 20.9979 23.7459C20.9979 23.4133 20.8657 23.0943 20.6306 22.8591L15.26 17.5011L20.6306 12.143C20.7476 12.0269 20.8405 11.8887 20.9039 11.7365C20.9674 11.5843 21 11.4211 21 11.2562C21 11.0913 20.9674 10.9281 20.9039 10.7759C20.8405 10.6237 20.7476 10.4856 20.6306 10.3694C20.5144 10.2524 20.3763 10.1595 20.2241 10.0961C20.0719 10.0326 19.9087 10 19.7438 10C19.5789 10 19.4157 10.0326 19.2635 10.0961C19.1113 10.1595 18.9731 10.2524 18.857 10.3694L12.6122 16.6143C12.4951 16.7304 12.4022 16.8685 12.3388 17.0207C12.2754 17.1729 12.2427 17.3362 12.2427 17.5011C12.2427 17.6659 12.2754 17.8292 12.3388 17.9814C12.4022 18.1336 12.4951 18.2717 12.6122 18.3878Z" fill="black"/>
</svg>
