<svg width="6" height="11" viewBox="0 0 6 11" fill="none" xmlns="http://www.w3.org/2000/svg">
<path d="M5.74688 4.90811L1.46825 0.744875C1.38847 0.66724 1.29375 0.605657 1.1895 0.563641C1.08525 0.521625 0.973522 0.5 0.860687 0.5C0.632806 0.5 0.414258 0.588084 0.253122 0.744875C0.173336 0.822509 0.110045 0.914675 0.066865 1.01611C0.0236848 1.11754 0.00146079 1.22626 0.00146079 1.33605C0.00146079 1.55779 0.0919858 1.77044 0.253122 1.92723L3.93274 5.49929L0.253122 9.07135C0.172916 9.14875 0.109255 9.24084 0.0658114 9.34231C0.0223674 9.44377 0 9.55261 0 9.66253C0 9.77244 0.0223674 9.88128 0.0658114 9.98274C0.109255 10.0842 0.172916 10.1763 0.253122 10.2537C0.332673 10.3317 0.427317 10.3937 0.531595 10.436C0.635873 10.4782 0.747721 10.5 0.860687 10.5C0.973653 10.5 1.0855 10.4782 1.18978 10.436C1.29406 10.3937 1.3887 10.3317 1.46825 10.2537L5.74688 6.09047C5.82708 6.01306 5.89075 5.92097 5.93419 5.81951C5.97763 5.71804 6 5.60921 6 5.49929C6 5.38937 5.97763 5.28054 5.93419 5.17907C5.89075 5.07761 5.82708 4.98552 5.74688 4.90811Z" fill="white"/>
</svg>
