<svg width="259" height="132" viewBox="0 0 259 132" fill="none" xmlns="http://www.w3.org/2000/svg">
<path fill-rule="evenodd" clip-rule="evenodd" d="M129.499 62.6377C124.792 65.3664 119.164 66.9896 113.162 66.9896C100.889 66.9896 90.1389 60.2767 84.3251 50.3225C84.3251 50.2733 84.2787 50.2733 84.2787 50.2293C84.2787 50.1801 84.2322 50.1801 84.2322 50.1361L88.939 47.6818L93.6458 45.2716C93.6922 45.3208 93.7387 45.3648 93.7825 45.458C97.8003 51.9845 104.995 56.3364 113.162 56.3364C115.794 56.3364 118.333 55.873 120.594 55.1326C115.564 49.3439 112.519 41.7533 112.519 33.4663C112.519 25.1794 115.518 17.6328 120.501 11.8001C118.24 11.0105 115.747 10.5937 113.162 10.5937C105.09 10.5937 97.6145 14.9456 93.509 21.9355C93.46 21.9847 93.46 22.0287 93.46 22.0753L84 17.1772C84.049 17.084 84.0955 16.9934 84.1393 16.9442C89.9067 6.80614 100.799 0 113.162 0C119.164 0 124.792 1.62063 129.499 4.39849C134.205 1.62063 139.836 0 145.836 0C158.201 0 169.093 6.80614 174.861 16.9442C174.907 16.9908 174.954 17.084 175 17.1772L165.54 22.0857C165.54 22.0391 165.54 21.9925 165.491 21.9459C161.385 14.9559 153.912 10.604 145.836 10.604C143.253 10.604 140.76 11.0208 138.497 11.8104C143.482 17.6432 146.481 25.2363 146.481 33.4767C146.481 41.7171 143.433 49.3568 138.406 55.143C140.667 55.8834 143.204 56.3468 145.836 56.3468C154.003 56.3468 161.202 51.9949 165.215 45.4684C165.261 45.3752 165.31 45.3286 165.354 45.282L170.061 47.6922L174.768 50.1464C174.768 50.193 174.721 50.193 174.721 50.2396C174.721 50.2837 174.675 50.2837 174.675 50.3328C168.861 60.2845 158.108 67 145.836 67C139.836 67 134.205 65.3768 129.499 62.6481V62.6377ZM129.499 49.3491C125.623 45.2302 123.133 39.6279 123.133 33.4689C123.133 27.31 125.486 21.8967 129.499 17.7752C133.516 21.8941 135.87 27.4058 135.87 33.4689C135.87 39.5321 133.377 45.2302 129.499 49.3491Z" fill="#FF4146"/>
<path fill-rule="evenodd" clip-rule="evenodd" d="M37.7021 120.631C37.6653 120.69 37.6064 120.815 37.577 120.904C34.2511 127.188 27.717 131.47 20.2632 131.47C9.45404 131.47 0.580078 122.412 0.580078 111.235C0.580078 100.058 9.45404 91 20.2632 91C27.7538 91 34.31 95.3707 37.6064 101.75C37.7021 101.875 37.7315 101.934 37.8198 102.118C37.8566 102.155 31.5359 106.71 31.4771 106.614C31.4403 106.489 31.4182 106.401 31.352 106.334C29.5345 101.809 25.2226 98.7849 20.2632 98.8806C13.6408 98.9395 8.18843 104.429 8.18843 111.235C8.18843 118.041 13.6408 123.648 20.2632 123.648C25.0681 123.648 29.2622 120.698 31.168 116.503C31.2563 116.349 31.2857 116.224 31.352 116.106L37.7021 120.631Z" fill="#FF4146"/>
<path fill-rule="evenodd" clip-rule="evenodd" d="M45.8535 91.3679H53.4398V105.503H73.3363V91.3679H80.9741V130.705H73.3363V113.42H53.4398V130.705H45.8535V91.3679Z" fill="#FF4146"/>
<path fill-rule="evenodd" clip-rule="evenodd" d="M187.926 130.705V91.3679H215.431V99.3147H195.593V107.173H213.922V115.024H195.593V122.883H218.234V130.705H187.926Z" fill="#FF4146"/>
<path fill-rule="evenodd" clip-rule="evenodd" d="M228.979 130.705V91.3679H236.683V122.883H258.058V130.705H228.979Z" fill="#FF4146"/>
<path fill-rule="evenodd" clip-rule="evenodd" d="M146.581 130.705H146.339H138.885V91.3679H139.444H149.576L166.426 115.024V91.3679H174.064V130.705H167.964L146.581 101.044V130.705Z" fill="#FF4146"/>
<path fill-rule="evenodd" clip-rule="evenodd" d="M109.901 99.3147L103.183 115.024H116.921L109.901 99.3147ZM99.7321 122.876L96.2222 130.697H87.1055L104.537 91.3679H115.192L132.748 130.697H123.624L120.085 122.876H99.7247H99.7321Z" fill="#FF4146"/>
</svg>
