<svg width="127" height="20" viewBox="0 0 127 20" fill="none" xmlns="http://www.w3.org/2000/svg">
<g clip-path="url(#clip0_22_259)">
<path fill-rule="evenodd" clip-rule="evenodd" d="M54.0887 0.424622H51.6676L43.2861 19.6554H47.2323L49.1043 15.3935H54.0887H59.0731L60.9451 19.6554H64.8757L56.5098 0.424622H54.0887ZM54.0887 11.5874H50.7406L54.0887 3.97731L54.1043 3.94619L57.4369 11.5874H54.0887Z" fill="white"/>
<path fill-rule="evenodd" clip-rule="evenodd" d="M96.3539 11.9497H105.096V8.16139H96.3539V4.00844H106.149V0.424622H92.2031V19.6554H107.172V16.0694H96.3539V11.9497Z" fill="white"/>
<path fill-rule="evenodd" clip-rule="evenodd" d="M116.165 16.0694V0.424622H112.014V19.6554H126.04V16.1005L116.165 16.0694Z" fill="white"/>
<path fill-rule="evenodd" clip-rule="evenodd" d="M35.8024 7.35881H26.9496V0.424622H22.7988V19.6554H26.9496V11.4784H35.8024V19.6554H39.9531V0.455747H35.8024V7.35881Z" fill="white"/>
<path fill-rule="evenodd" clip-rule="evenodd" d="M82.2964 12.3899L73.7748 0.455747L72.2808 0.424622H68.9482V19.6554H72.2808V5.6136L82.2964 19.6554H85.8669V0.455747H82.2964V12.3899Z" fill="white"/>
<path fill-rule="evenodd" clip-rule="evenodd" d="M14.7488 13.4282L14.2463 14.0262L13.7105 14.5598L13.0502 15L12.3588 15.3779L11.6207 15.6447L10.8181 15.8026L10 15.8648L9.4353 15.8493L8.85282 15.7559L8.30147 15.6292L7.7679 15.4246L7.2321 15.1734L6.76078 14.8755L6.28946 14.5287L5.86483 14.1507L5.47132 13.7105L5.12672 13.2548L4.82659 12.7679L4.57537 12.2477L4.40196 11.7141L4.26189 11.1472L4.18186 10.5825L4.15073 10L4.18186 9.41752L4.26189 8.85282L4.40196 8.30147L4.57537 7.78346L4.82659 7.26323L5.12672 6.76078L5.47132 6.28946L5.86483 5.86483L6.28946 5.47132L6.76078 5.14229L7.2321 4.84215L7.7679 4.60649L8.30147 4.40196L8.85282 4.27746L9.4353 4.18186L10 4.15073L10.598 4.18186L11.1627 4.27746L11.7141 4.40196L12.2655 4.60649L12.7523 4.84215L13.2548 5.14229L13.7261 5.47132L14.1507 5.86483L14.6221 6.41619L15.0156 6.98088L18.7261 5.0956L18.3815 4.52868L17.9724 3.97732L17.5634 3.45932L17.092 2.93908L16.3362 2.26323L15.5669 1.69853L14.7177 1.19386L13.8217 0.771454L12.9413 0.455758L11.9653 0.204535L10.9916 0.0466874L10 0L8.97732 0.0466874L7.98799 0.220098L7.04535 0.455758L6.11605 0.802579L5.25122 1.22721L4.40196 1.7141L3.63273 2.29658L2.94131 2.93908L2.29658 3.66385L1.7141 4.43308L1.19609 5.25122L0.802579 6.11605L0.455758 7.04313L0.204535 8.00356L0.0466874 8.99289L0 10L0.0466874 11.0071L0.204535 11.9653L0.424633 12.908L0.753668 13.8373L1.1783 14.7021L1.66741 15.5514L2.26545 16.3362L2.94131 17.0609L3.66385 17.7368L4.45087 18.3326L5.29791 18.8373L6.16274 19.2463L7.09204 19.5754L8.03468 19.8266L9.01067 19.9533L10 20L10.9916 19.9533L11.9653 19.8266L12.9413 19.5754L13.8217 19.2463L14.7177 18.8373L15.5669 18.3326L16.3362 17.7368L17.092 17.0609L17.61 16.5251L18.0814 15.9271L18.506 15.2979L18.8684 14.6554L15.1734 12.7679L14.7488 13.4282Z" fill="white"/>
</g>
<defs>
<clipPath id="clip0_22_259">
<rect width="126.04" height="20" fill="white"/>
</clipPath>
</defs>
</svg>
