<svg width="911" height="158" viewBox="0 0 911 158" fill="none" xmlns="http://www.w3.org/2000/svg">
<g filter="url(#filter0_d_100_248)">
<path d="M134.75 110.22L142.8 113.67C139.81 124.94 133.83 142.42 129.92 150.47C123.94 151.85 102.78 156.45 87.14 156.45C25.96 156.45 0.660001 116.66 0.660001 80.09C0.660001 32.71 36.77 0.0499951 91.74 0.0499951C110.37 0.0499951 127.39 4.87999 133.6 6.26C135.67 18.91 137.28 29.49 138.89 43.75L130.38 45.36C122.79 18.22 105.08 10.17 87.37 10.17C54.02 10.17 35.62 41.45 35.62 75.49C35.62 117.81 58.39 145.64 89.67 145.64C108.76 145.64 123.02 133.45 134.75 110.22ZM318.01 3.49999V11.55C300.07 13.16 298.69 14.54 298.69 34.09V122.64C298.69 141.96 300.53 143.34 318.01 144.95V153H247.86V144.95C266.03 143.34 267.87 141.96 267.87 122.41V79.63H205.08V122.41C205.08 141.96 206.92 143.34 223.94 144.95V153H155.4V144.95C172.19 143.34 174.26 141.96 174.26 122.41V34.09C174.26 14.54 172.19 13.16 154.48 11.55V3.49999H223.48V11.55C206.92 13.16 205.08 14.54 205.08 34.09V67.9H267.87V34.09C267.87 14.54 266.03 13.16 248.78 11.55V3.49999H318.01ZM475.817 153H410.037V144.95C423.607 142.88 424.757 140.12 421.077 130C418.777 123.1 415.327 113.21 411.877 104.01H367.717C365.187 111.14 362.197 119.42 359.437 128.62C355.987 139.66 356.677 142.88 373.467 144.95V153H321.947V144.95C337.127 143.11 340.117 140.58 347.707 121.26L394.857 3.04L406.587 0.0499951C421.307 40.3 435.567 80.32 450.517 119.88C458.337 140.12 461.097 143.11 475.817 144.95V153ZM407.507 91.82L390.487 41.91H389.797C383.357 58.7 377.607 75.49 371.627 91.82H407.507ZM646.719 3.49999V11.32C634.299 12.01 629.469 15.23 628.319 25.58C627.629 32.71 626.249 43.52 626.249 63.99V155.3H615.209L519.529 40.76H518.839V92.28C518.839 112.52 519.989 122.87 520.679 129.77C521.829 139.89 525.739 144.26 542.759 144.95V153H486.409V144.95C499.289 144.03 504.579 140.35 505.499 130.46C506.419 122.87 507.799 112.52 507.799 92.28V44.44C507.799 29.26 507.569 25.12 503.199 19.6C498.829 14.08 493.769 12.24 483.879 11.32V3.49999H526.429L614.519 104.47H615.209V63.99C615.209 43.52 614.059 32.71 613.369 26.04C612.219 16.15 607.619 12.24 590.599 11.32V3.49999H646.719ZM773.503 113.21L781.783 114.82C780.173 125.17 775.573 146.1 773.733 153H656.433V144.95C675.983 143.34 678.283 141.96 678.283 122.41V34.09C678.283 14.08 675.983 12.93 659.653 11.55V3.49999H767.983C768.213 7.63999 769.363 23.74 770.283 38L761.773 39.15C759.703 31.1 756.713 23.51 752.573 19.37C748.663 15.23 742.453 13.62 729.573 13.62H718.533C710.023 13.62 709.103 14.08 709.103 21.67V70.43H724.513C743.833 70.43 747.053 69.28 750.043 53.18H758.323V99.41H750.043C747.053 82.85 744.063 81.93 724.513 81.93H709.103V121.95C709.103 132.99 710.023 138.51 714.623 140.81C718.763 142.65 726.583 143.11 735.323 143.11C747.283 143.11 755.333 141.5 760.623 135.75C765.223 130.69 769.363 123.33 773.503 113.21ZM901.856 111.6L910.136 114.13C908.296 124.02 903.466 146.79 901.626 153H789.616V144.95C809.626 143.34 811.926 141.96 811.926 122.41V34.32C811.926 14.54 809.626 13.16 792.146 11.55V3.49999H862.296V11.55C844.816 13.16 842.746 14.54 842.746 34.32V124.25C842.746 135.06 843.666 138.97 848.266 141.04C852.406 142.65 858.386 143.11 865.516 143.11C875.406 143.11 883.686 141.5 889.206 135.29C893.346 130.69 897.716 123.33 901.856 111.6Z" fill="white"/>
</g>
<defs>
<filter id="filter0_d_100_248" x="0.160156" y="0.0500488" width="910.476" height="157.4" filterUnits="userSpaceOnUse" color-interpolation-filters="sRGB">
<feFlood flood-opacity="0" result="BackgroundImageFix"/>
<feColorMatrix in="SourceAlpha" type="matrix" values="0 0 0 0 0 0 0 0 0 0 0 0 0 0 0 0 0 0 127 0" result="hardAlpha"/>
<feOffset dy="0.5"/>
<feGaussianBlur stdDeviation="0.25"/>
<feComposite in2="hardAlpha" operator="out"/>
<feColorMatrix type="matrix" values="0 0 0 0 0 0 0 0 0 0 0 0 0 0 0 0 0 0 0.25 0"/>
<feBlend mode="normal" in2="BackgroundImageFix" result="effect1_dropShadow_100_248"/>
<feBlend mode="normal" in="SourceGraphic" in2="effect1_dropShadow_100_248" result="shape"/>
</filter>
</defs>
</svg>
