<svg width="11" height="11" viewBox="0 0 11 11" fill="none" xmlns="http://www.w3.org/2000/svg">
<path d="M5.434 3.927C6.138 3.96 6.3195 4.5595 6.3305 4.84H7.315C7.271 3.751 6.4955 3.0855 5.4175 3.0855C4.202 3.0855 3.3 3.85 3.3 5.577C3.3 6.644 3.8115 7.909 5.412 7.909C6.633 7.909 7.2875 7.0015 7.304 6.2865H6.3195C6.303 6.611 6.072 7.0455 5.423 7.0785C4.7025 7.0565 4.4 6.4955 4.4 5.577C4.4 3.9875 5.104 3.938 5.434 3.927ZM5.5 0C2.464 0 0 2.464 0 5.5C0 8.536 2.464 11 5.5 11C8.536 11 11 8.536 11 5.5C11 2.464 8.536 0 5.5 0ZM5.5 9.9C3.0745 9.9 1.1 7.9255 1.1 5.5C1.1 3.0745 3.0745 1.1 5.5 1.1C7.9255 1.1 9.9 3.0745 9.9 5.5C9.9 7.9255 7.9255 9.9 5.5 9.9Z" fill="#DBDBDB"/>
</svg>
