<svg width="65" height="20" viewBox="0 0 65 20" fill="none" xmlns="http://www.w3.org/2000/svg">
<path d="M10.86 6.12982C10.32 4.42982 9.30002 2.42982 7.11002 2.42982C5.60002 2.42982 4.49002 3.53982 4.49002 5.09982C4.49002 6.57982 5.46002 7.41982 7.83002 8.62982C10.66 10.0098 12.61 11.5198 12.61 14.1898C12.61 17.2698 9.99003 19.6698 6.05003 19.6698C5.08003 19.6698 4.13002 19.5398 3.33002 19.2898C2.57002 19.0698 2.06002 18.8598 1.71002 18.6998C1.44002 18.0298 1.09002 15.7598 0.900024 14.1398L1.84002 13.8198C2.38002 15.5498 3.97002 18.5898 6.56002 18.5898C8.21002 18.5898 9.26003 17.4598 9.26003 15.7298C9.26003 14.1398 8.07003 13.1398 6.05003 12.0598C3.30003 10.6598 1.36002 9.19983 1.36002 6.60983C1.36002 3.63983 3.71002 1.31982 7.54002 1.31982C9.27002 1.31982 10.8 1.85982 11.29 2.01982C11.4 3.01982 11.59 4.22983 11.8 5.89983L10.86 6.12982Z" fill="white"/>
<path d="M24.91 16.68C23.67 18.43 21.92 19.59 20.27 19.59C16.57 19.59 14.42 16.78 14.42 13.84C14.42 11.87 15.45 9.96003 17.14 8.69003C18.92 7.40003 20.67 7.02002 21.7 7.02002H21.73C22.7 7.02002 23.59 7.32003 24.05 7.69003C24.46 7.96003 24.56 8.28003 24.54 8.66003C24.54 9.44003 23.84 10.14 23.38 10.14C23.19 10.14 23.03 10.06 22.79 9.84002C21.68 8.87002 20.82 8.44003 20.07 8.44003C19.02 8.44003 17.8 9.47002 17.8 12.35C17.8 15.94 20.39 17.13 21.52 17.13C22.65 17.13 23.44 16.86 24.41 16.02L24.91 16.68Z" fill="white"/>
<path d="M30.82 9.84975C31.82 8.17975 32.84 7.01974 33.87 7.01974C34.92 7.01974 35.68 7.77975 35.68 8.68975C35.68 9.65975 35.06 10.4198 34.36 10.6898C33.98 10.8198 33.71 10.7398 33.52 10.5798C33.06 10.1997 32.71 10.0098 32.28 10.0098C31.77 10.0098 31.23 10.3598 30.77 11.4098V16.4497C30.77 18.0997 30.9 18.2297 32.98 18.3897V19.2497H25.59V18.3997C27.07 18.2397 27.32 18.0997 27.32 16.4597V10.5498C27.32 9.16975 27.13 9.06974 25.86 8.76974V8.00975C27.48 7.78975 29.1 7.49975 30.77 6.98975V9.84975H30.82Z" fill="white"/>
<path d="M48.71 13.0898C48.71 17.4298 45.61 19.5898 42.45 19.5898C38.21 19.5898 36.14 16.5098 36.14 13.5698C36.14 9.22976 39.57 7.00977 42.59 7.00977C46.33 7.01977 48.71 9.84976 48.71 13.0898ZM40 12.5998C40 15.9198 41.05 18.5298 42.75 18.5298C43.78 18.5298 44.85 17.8798 44.85 13.8898C44.85 10.1398 43.91 8.05976 42.18 8.05976C41.07 8.06976 40 9.52976 40 12.5998Z" fill="white"/>
<path d="M49.49 19.2698V18.3998C51.11 18.1598 51.24 18.0498 51.24 16.2998V3.9698C51.24 2.3198 51.11 2.2698 49.62 2.0798V1.2698C51.16 1.0798 53.15 0.699805 54.69 0.299805V16.2998C54.69 18.1098 54.82 18.2398 56.5 18.3998V19.2598H49.49V19.2698Z" fill="white"/>
<path d="M57.0701 19.2698V18.3998C58.6901 18.1598 58.8201 18.0498 58.8201 16.2998V3.9698C58.8201 2.3198 58.6901 2.2698 57.2001 2.0798V1.2698C58.7401 1.0798 60.7301 0.699805 62.2701 0.299805V16.2998C62.2701 18.1098 62.4001 18.2398 64.0801 18.3998V19.2598H57.0701V19.2698Z" fill="white"/>
</svg>
