<svg width="183" height="183" viewBox="0 0 183 183" fill="none" xmlns="http://www.w3.org/2000/svg">
<path d="M91.02 174.52C137.125 174.52 174.5 137.145 174.5 91.0401C174.5 44.9353 137.125 7.56006 91.02 7.56006C44.9153 7.56006 7.54004 44.9353 7.54004 91.0401C7.54004 137.145 44.9153 174.52 91.02 174.52Z" fill="url(#paint0_radial_50_866)" fill-opacity="0.6"/>
<path d="M21.59 126.49C22.84 126.12 24.87 125.59 25.89 125.51C26.46 126.04 28.16 127.64 29.22 129.26C32.91 134.88 30.64 139.88 27.05 142.24C22.31 145.35 16.78 143.75 13.48 138.72C12.28 136.89 11.77 135.03 11.47 134.33C12.64 133.31 13.45 132.58 14.58 131.64L15.18 132.21C13.17 134.37 13.09 136.36 14.69 138.79C17.16 142.56 21.66 142.48 25.09 140.23C29.31 137.46 30.57 133.08 28.32 129.66C26.81 127.36 24.77 126.96 21.77 127.31L21.59 126.49Z" fill="white"/>
<path d="M3.14004 111.89C4.05004 113.92 4.25004 114.07 6.36004 113.34L16.65 109.74C18.79 108.99 18.84 108.74 18.28 106.63L18.99 106.38L21.37 113.2L20.66 113.45C19.75 111.34 19.54 111.16 17.4 111.9L12.31 113.68L15.34 122.36L20.43 120.58C22.54 119.84 22.62 119.58 22.05 117.44L22.76 117.19L25.1 123.89L24.39 124.14C23.52 122.16 23.33 122 21.19 122.75L10.9 126.35C8.76004 127.1 8.73004 127.34 9.28004 129.49L8.57004 129.74L6.26004 123.15L6.97004 122.9C7.82004 124.77 8.02004 124.93 10.14 124.19L14.26 122.75L11.22 114.07L7.10004 115.51C4.99004 116.25 4.93004 116.5 5.45004 118.55L4.74004 118.8L2.42004 112.15L3.14004 111.89Z" fill="white"/>
<path d="M18.1301 96.1999L17.3801 96.2799C16.9901 94.6099 16.7501 94.3899 15.7401 94.8499C14.7301 95.3099 13.3301 95.9899 11.7601 96.7499L12.3401 102.47C13.5901 102.78 14.7601 103.07 15.9201 103.3C17.6701 103.72 17.9201 103.45 17.9001 101.42L18.6501 101.34L19.2401 107.17L18.4901 107.25C18.0801 105.58 17.8801 105.22 15.4201 104.52L0.760054 100.39L0.430054 99.5799C4.88005 97.4499 9.80005 95.1299 14.2901 92.9399C16.5101 91.8499 16.7201 91.4699 16.7001 89.7099L17.4501 89.6299L18.1301 96.1999ZM4.03005 100.28V100.33C6.43005 100.96 8.85005 101.58 11.1301 102.16L10.6301 97.2199L4.03005 100.28Z" fill="white"/>
<path d="M3.42 68.9398C3.29 70.4498 3.54 71.1399 4.7 71.4099C5.49 71.6299 6.68 71.8598 9.16 72.2098L19.92 73.7498L19.8 74.5798L4.19 83.9598L4.18 84.0098L10.89 84.9698C13.35 85.3198 14.64 85.4298 15.43 85.4598C16.81 85.5198 17.22 84.9498 17.59 83.1498L18.34 83.2598L17.43 89.5898L16.68 89.4799C16.82 87.9199 16.57 87.1998 15.28 86.8798C14.46 86.6798 13.19 86.4198 10.74 86.0598L4.86 85.2198C2.91 84.9398 2.8 84.9799 2.09 85.3699C1.35 85.8099 1.05 86.3698 0.76 87.6098L0 87.5098L0.57 83.5598L15.58 74.3398L15.59 74.2598L9.02 73.3198C6.56 72.9698 5.32 72.8999 4.56 72.8699C3.34 72.8299 2.9 73.4198 2.53 75.2498L1.78 75.1398L2.68 68.8398L3.42 68.9398Z" fill="white"/>
<path d="M21.3399 56.7802C22.1099 57.2502 24.2899 58.6602 24.9799 59.1902L20.3199 71.3302L19.6099 71.0602C20.3099 68.7002 20.1899 68.4202 18.1499 67.6402L8.12995 63.8002C5.85995 62.9302 5.70995 63.1002 4.77995 65.0002L4.06995 64.7302L8.37995 53.4902C9.00995 53.7302 10.7699 54.2602 12.0899 54.6802L11.9399 55.4602C10.7899 55.2802 10.1399 55.3202 9.45995 55.4402C8.79995 55.5902 8.35995 56.2002 7.65995 58.0202L6.92995 59.9302C6.62995 60.7102 6.65995 60.7802 7.41995 61.0702L13.1399 63.2602L14.0499 60.8902C14.9199 58.6202 14.7699 58.4202 13.1999 57.4402L13.4799 56.7102L18.3199 58.5702L18.0399 59.3002C16.0999 58.9302 15.8799 59.0502 15.0399 61.2402L14.1199 63.6302L18.8799 65.4602C20.0599 65.9102 20.6499 65.9702 21.1499 65.6402C21.6399 65.2802 21.9999 64.4002 22.4799 63.1502C23.2099 61.2302 23.2799 60.4502 22.8399 59.6502C22.4999 59.0302 21.8299 58.2202 20.9499 57.5102L21.3399 56.7802Z" fill="white"/>
<path d="M28.8799 44.5802C29.5099 45.1602 31.3899 46.9902 31.9699 47.6302L25.5399 58.0302L24.8999 57.6302C25.9499 55.6202 25.9099 55.3402 23.9599 54.1302L14.7799 48.4502C12.8299 47.2402 12.6099 47.3302 11.3299 49.1102L10.6899 48.7102L14.3899 42.7202L15.0299 43.1202C14.0499 45.0202 14.0299 45.3002 15.9899 46.5002L25.0599 52.1002C26.2999 52.8702 26.8299 53.0402 27.3099 52.7702C27.8499 52.4702 28.3699 51.7202 28.9699 50.7502C29.7499 49.4902 30.1199 48.6402 29.8499 47.7402C29.6299 47.0702 29.1699 46.1802 28.3199 45.1802L28.8799 44.5802Z" fill="white"/>
<path d="M37.9901 41.2702C37.4201 41.8802 36.5201 41.9302 35.8301 41.2802C35.2001 40.6902 35.1501 39.7602 35.7401 39.1302C36.3301 38.5002 37.2701 38.4902 37.9001 39.0802C38.5901 39.7202 38.6001 40.6202 38.0101 41.2502L37.9901 41.2702Z" fill="white"/>
<path d="M54.64 22.0798C55.02 23.3198 55.58 25.3498 55.67 26.3598C55.15 26.9398 53.57 28.6498 51.96 29.7398C46.39 33.4998 41.36 31.2998 38.96 27.7398C35.79 23.0398 37.31 17.4898 42.3 14.1198C44.11 12.8998 45.96 12.3598 46.67 12.0498C47.71 13.1998 48.45 14.0098 49.4 15.1298L48.83 15.7398C46.65 13.7598 44.66 13.7098 42.24 15.3398C38.51 17.8598 38.64 22.3598 40.94 25.7598C43.76 29.9398 48.15 31.1398 51.55 28.8498C53.83 27.3098 54.21 25.2598 53.82 22.2698L54.64 22.0798Z" fill="white"/>
<path d="M69.01 3.43998C67 4.37998 66.84 4.57998 67.61 6.67998L71.34 16.92C72.12 19.05 72.36 19.1 74.47 18.51L74.73 19.22L67.94 21.69L67.68 20.98C69.78 20.04 69.96 19.83 69.18 17.71L67.34 12.64L58.7 15.79L60.54 20.86C61.31 22.96 61.56 23.04 63.7 22.44L63.96 23.15L57.29 25.58L57.03 24.87C59 23.98 59.16 23.78 58.38 21.65L54.66 11.4C53.89 9.26998 53.65 9.23998 51.5 9.81998L51.24 9.10998L57.8 6.71998L58.06 7.42998C56.2 8.30998 56.04 8.50998 56.81 10.61L58.31 14.72L66.95 11.57L65.45 7.45998C64.68 5.35998 64.44 5.29998 62.39 5.84998L62.13 5.13998L68.75 2.72998L69.01 3.43998Z" fill="white"/>
<path d="M84.91 18.2198L84.82 17.4698C86.49 17.0598 86.7 16.8198 86.23 15.8198C85.76 14.8098 85.06 13.4298 84.29 11.8598L78.58 12.5098C78.29 13.7598 78.01 14.9398 77.79 16.0998C77.39 17.8598 77.67 18.0998 79.7 18.0498L79.79 18.7998L73.97 19.4598L73.89 18.7098C75.55 18.2798 75.91 18.0698 76.58 15.6098L80.53 0.909824L81.33 0.569824C83.52 4.98982 85.89 9.87983 88.14 14.3498C89.26 16.5598 89.64 16.7598 91.4 16.7198L91.49 17.4698L84.91 18.2198ZM80.65 4.17982L80.6 4.18982C80.01 6.58982 79.41 9.01982 78.86 11.3098L83.79 10.7498L80.65 4.17982Z" fill="white"/>
<path d="M111.94 3.18C110.43 3.07 109.74 3.33 109.48 4.49C109.27 5.28 109.06 6.47 108.74 8.96L107.34 19.74L106.51 19.63L96.94 4.14L96.89 4.13L96.02 10.84C95.7 13.3 95.61 14.59 95.59 15.38C95.55 16.76 96.12 17.16 97.92 17.5L97.82 18.25L91.48 17.43L91.58 16.68C93.14 16.8 93.86 16.54 94.16 15.25C94.35 14.43 94.59 13.16 94.91 10.7L95.67 4.82C95.92 2.87 95.88 2.75 95.49 2.05C95.04 1.31 94.48 1.02 93.24 0.75L93.34 0L97.3 0.51L106.71 15.38L106.79 15.39L107.64 8.81C107.96 6.35 108.01 5.11 108.03 4.35C108.05 3.13 107.46 2.7 105.62 2.35L105.72 1.6L112.03 2.42L111.94 3.18Z" fill="white"/>
<path d="M124.36 20.94C123.9 21.72 122.52 23.91 122 24.61L109.8 20.11L110.06 19.4C112.43 20.07 112.7 19.94 113.46 17.9L117.18 7.83004C118.02 5.55004 117.85 5.40004 115.94 4.50004L116.2 3.79004L127.49 7.96004C127.26 8.59004 126.75 10.36 126.35 11.68L125.57 11.53C125.73 10.38 125.69 9.73004 125.56 9.06004C125.4 8.40004 124.78 7.97004 122.96 7.30004L121.04 6.59004C120.26 6.30004 120.19 6.33004 119.91 7.09004L117.79 12.83L120.17 13.71C122.45 14.55 122.65 14.4 123.6 12.82L124.33 13.09L122.54 17.95L121.81 17.68C122.15 15.74 122.03 15.52 119.83 14.71L117.43 13.82L115.66 18.6C115.22 19.79 115.18 20.38 115.51 20.87C115.88 21.35 116.76 21.7 118.02 22.17C119.94 22.88 120.73 22.94 121.53 22.49C122.15 22.14 122.95 21.46 123.65 20.57L124.36 20.94Z" fill="white"/>
<path d="M136.67 28.3299C136.1 28.9599 134.29 30.8699 133.66 31.4599L123.18 25.1699L123.57 24.5199C125.6 25.5499 125.88 25.4999 127.06 23.5299L132.62 14.2799C133.8 12.3199 133.71 12.0999 131.92 10.8399L132.31 10.1899L138.35 13.8199L137.96 14.4699C136.05 13.5099 135.77 13.4999 134.59 15.4699L129.1 24.6099C128.35 25.8599 128.19 26.3899 128.47 26.8699C128.78 27.3999 129.54 27.9199 130.51 28.5099C131.78 29.2699 132.64 29.6299 133.53 29.3499C134.2 29.1199 135.09 28.6499 136.07 27.7899L136.67 28.3299Z" fill="white"/>
<path d="M140.07 37.3899C139.45 36.8199 139.39 35.9299 140.03 35.2299C140.61 34.5899 141.55 34.5299 142.18 35.1099C142.82 35.6899 142.84 36.6299 142.26 37.2599C141.62 37.9599 140.73 37.9799 140.09 37.3899H140.07Z" fill="white"/>
<path d="M159.47 53.7799C158.24 54.1799 156.21 54.7599 155.2 54.8699C154.61 54.3599 152.88 52.7999 151.77 51.2099C147.94 45.6899 150.07 40.6299 153.6 38.1799C158.25 34.9499 163.83 36.3999 167.26 41.3399C168.51 43.1299 169.06 44.9799 169.38 45.6799C168.24 46.7299 167.45 47.4799 166.34 48.4499L165.72 47.8899C167.67 45.6799 167.7 43.6899 166.04 41.2999C163.47 37.5999 158.98 37.7999 155.61 40.1299C151.47 43.0099 150.32 47.4099 152.66 50.7799C154.23 53.0399 156.28 53.3899 159.26 52.9599L159.47 53.7799Z" fill="white"/>
<path d="M178.3 67.9598C177.34 65.9598 177.14 65.8098 175.05 66.5998L164.86 70.4498C162.74 71.2498 162.69 71.4998 163.31 73.5998L162.6 73.8698L160.04 67.1098L160.75 66.8398C161.71 68.9298 161.92 69.1098 164.04 68.2998L169.09 66.3898L165.84 57.7898L160.79 59.6998C158.7 60.4898 158.62 60.7498 159.25 62.8798L158.54 63.1498L156.03 56.5198L156.74 56.2498C157.65 58.2098 157.86 58.3698 159.98 57.5598L170.17 53.7098C172.29 52.9098 172.31 52.6698 171.71 50.5298L172.42 50.2598L174.89 56.7998L174.18 57.0698C173.28 55.2198 173.08 55.0698 170.98 55.8598L166.89 57.3998L170.14 65.9998L174.23 64.4598C176.32 63.6698 176.37 63.4198 175.81 61.3798L176.52 61.1098L179.01 67.6898L178.3 67.9598Z" fill="white"/>
<path d="M163.71 84.01L164.46 83.92C164.89 85.58 165.13 85.79 166.13 85.31C167.13 84.83 168.51 84.11 170.07 83.32L169.35 77.62C168.09 77.35 166.92 77.09 165.75 76.88C163.99 76.5 163.75 76.78 163.82 78.81L163.07 78.91L162.34 73.1L163.09 73C163.54 74.66 163.75 75.01 166.23 75.65L180.98 79.41L181.33 80.21C176.94 82.45 172.08 84.89 167.64 87.19C165.45 88.34 165.25 88.72 165.31 90.47L164.56 90.57L163.71 84.01ZM177.7 79.57L177.69 79.52C175.28 78.95 172.84 78.39 170.55 77.87L171.17 82.79L177.7 79.57Z" fill="white"/>
<path d="M179.11 110.84C179.2 109.33 178.93 108.65 177.77 108.4C176.98 108.2 175.78 108 173.29 107.71L162.49 106.45L162.59 105.62L177.97 95.8501L177.98 95.8001L171.25 95.0101C168.79 94.7201 167.49 94.6501 166.7 94.6401C165.32 94.6101 164.92 95.1901 164.6 97.0001L163.85 96.9101L164.59 90.5601L165.34 90.6501C165.24 92.2101 165.51 92.9201 166.81 93.2101C167.63 93.3901 168.91 93.6201 171.37 93.9101L177.26 94.6001C179.22 94.8301 179.33 94.7901 180.03 94.3801C180.76 93.9201 181.05 93.3601 181.3 92.1101L182.05 92.2001L181.59 96.1701L166.83 105.77L166.82 105.85L173.41 106.62C175.88 106.91 177.12 106.95 177.88 106.95C179.1 106.96 179.53 106.36 179.85 104.52L180.6 104.61L179.86 110.93L179.11 110.84Z" fill="white"/>
<path d="M161.51 123.48C160.72 123.03 158.51 121.67 157.81 121.17L162.15 108.91L162.86 109.16C162.22 111.54 162.35 111.81 164.41 112.54L174.53 116.13C176.82 116.94 176.97 116.76 177.85 114.84L178.56 115.09L174.54 126.43C173.9 126.2 172.13 125.72 170.81 125.34L170.94 124.56C172.09 124.71 172.74 124.65 173.42 124.52C174.08 124.35 174.5 123.73 175.15 121.9L175.84 119.97C176.12 119.18 176.09 119.11 175.32 118.84L169.55 116.79L168.7 119.18C167.89 121.47 168.05 121.67 169.63 122.6L169.37 123.34L164.49 121.61L164.75 120.87C166.7 121.19 166.91 121.06 167.7 118.85L168.56 116.43L163.75 114.73C162.56 114.31 161.97 114.27 161.47 114.61C160.99 114.99 160.65 115.87 160.2 117.14C159.52 119.07 159.47 119.86 159.93 120.65C160.29 121.26 160.98 122.05 161.88 122.74L161.51 123.48Z" fill="white"/>
<path d="M154.27 135.89C153.63 135.33 151.7 133.55 151.1 132.92L157.26 122.36L157.91 122.74C156.91 124.78 156.96 125.06 158.94 126.22L168.26 131.66C170.24 132.82 170.45 132.72 171.69 130.92L172.34 131.3L168.79 137.38L168.14 137C169.08 135.08 169.08 134.8 167.1 133.64L157.9 128.26C156.64 127.53 156.11 127.37 155.63 127.65C155.1 127.97 154.59 128.73 154.02 129.71C153.27 130.99 152.92 131.85 153.22 132.74C153.45 133.41 153.94 134.29 154.81 135.26L154.27 135.89Z" fill="white"/>
<path d="M145.25 139.41C145.81 138.79 146.7 138.72 147.41 139.34C148.05 139.91 148.13 140.85 147.55 141.49C146.97 142.14 146.04 142.17 145.4 141.6C144.69 140.97 144.66 140.07 145.24 139.43L145.25 139.41Z" fill="white"/>
<path d="M129.09 159.02C128.68 157.79 128.07 155.77 127.95 154.77C128.46 154.18 129.99 152.42 131.57 151.3C137.04 147.4 142.13 149.47 144.62 152.96C147.91 157.57 146.53 163.16 141.63 166.66C139.85 167.93 138.01 168.51 137.32 168.84C136.25 167.71 135.49 166.93 134.52 165.84L135.07 165.22C137.3 167.14 139.29 167.15 141.67 165.46C145.34 162.84 145.09 158.35 142.7 155.01C139.77 150.9 135.35 149.81 132.01 152.19C129.77 153.79 129.44 155.84 129.91 158.82L129.09 159.02Z" fill="white"/>
<path d="M115.19 178.02C117.18 177.03 117.33 176.83 116.51 174.75L112.52 164.6C111.69 162.49 111.44 162.44 109.35 163.09L109.07 162.39L115.8 159.75L116.08 160.45C114 161.44 113.83 161.65 114.66 163.76L116.63 168.78L125.19 165.42L123.22 160.4C122.4 158.32 122.14 158.24 120.02 158.9L119.74 158.2L126.34 155.61L126.62 156.31C124.67 157.25 124.52 157.45 125.35 159.56L129.34 169.7C130.17 171.81 130.41 171.83 132.54 171.2L132.82 171.9L126.32 174.45L126.04 173.75C127.88 172.82 128.03 172.62 127.21 170.54L125.61 166.47L117.05 169.83L118.65 173.9C119.47 175.98 119.72 176.03 121.75 175.44L122.03 176.14L115.48 178.72L115.19 178.02Z" fill="white"/>
<path d="M98.94 163.64L99.04 164.39C97.39 164.84 97.18 165.09 97.67 166.08C98.16 167.07 98.9 168.44 99.71 169.99L105.4 169.2C105.66 167.94 105.9 166.76 106.1 165.59C106.45 163.82 106.18 163.59 104.15 163.68L104.05 162.93L109.85 162.12L109.95 162.87C108.3 163.34 107.95 163.56 107.34 166.04L103.76 180.84L102.97 181.2C100.67 176.83 98.18 172.01 95.82 167.6C94.65 165.42 94.26 165.23 92.51 165.31L92.41 164.56L98.94 163.64ZM103.55 177.57L103.6 177.56C104.14 175.14 104.67 172.7 105.16 170.4L100.24 171.08L103.55 177.57Z" fill="white"/>
<path d="M72.2901 179.37C73.8001 179.45 74.4801 179.17 74.7101 177.99C74.9001 177.2 75.08 176 75.34 173.5L76.4601 162.69L77.2901 162.78L87.2501 178.03L87.3001 178.04L88.0001 171.31C88.2601 168.84 88.3101 167.55 88.3101 166.76C88.3201 165.38 87.7301 164.99 85.9201 164.69L86.0001 163.94L92.3601 164.6L92.2801 165.35C90.7201 165.27 90.0101 165.55 89.7401 166.85C89.5701 167.67 89.3601 168.95 89.1001 171.42L88.4901 177.32C88.2801 179.28 88.3301 179.39 88.7401 180.08C89.2101 180.81 89.7701 181.08 91.0201 181.32L90.9401 182.07L86.9701 181.66L77.1801 167.03L77.1001 167.02L76.4101 173.62C76.1501 176.09 76.1301 177.33 76.1301 178.09C76.1401 179.31 76.75 179.73 78.59 180.03L78.5101 180.78L72.1801 180.12L72.2901 179.37Z" fill="white"/>
<path d="M59.42 161.93C59.86 161.14 61.19 158.91 61.69 158.2L74 162.39L73.76 163.1C71.37 162.49 71.1 162.62 70.4 164.69L66.94 174.86C66.16 177.16 66.34 177.31 68.27 178.16L68.03 178.88L56.62 175C56.84 174.36 57.3 172.58 57.67 171.25L58.46 171.37C58.32 172.52 58.39 173.17 58.53 173.84C58.7 174.5 59.33 174.91 61.17 175.54L63.11 176.2C63.9 176.47 63.97 176.44 64.23 175.67L66.21 169.87L63.81 169.05C61.51 168.27 61.31 168.43 60.4 170.03L59.66 169.78L61.33 164.88L62.07 165.13C61.78 167.08 61.9 167.3 64.12 168.05L66.55 168.88L68.19 164.05C68.6 162.85 68.63 162.26 68.28 161.77C67.9 161.3 67.01 160.97 65.74 160.53C63.8 159.87 63.01 159.83 62.23 160.3C61.62 160.66 60.84 161.37 60.16 162.27L59.42 161.93Z" fill="white"/>
<path d="M46.95 154.86C47.5 154.21 49.26 152.26 49.88 151.66L60.51 157.69L60.14 158.35C58.09 157.37 57.81 157.43 56.68 159.43L51.36 168.81C50.23 170.8 50.33 171.02 52.15 172.23L51.78 172.89L45.66 169.42L46.03 168.76C47.96 169.67 48.24 169.67 49.37 167.68L54.63 158.41C55.35 157.14 55.5 156.61 55.21 156.13C54.89 155.61 54.12 155.11 53.13 154.55C51.84 153.82 50.98 153.48 50.09 153.79C49.43 154.03 48.55 154.53 47.59 155.41L46.95 154.86Z" fill="white"/>
<path d="M43.31 145.89C43.94 146.44 44.02 147.33 43.4 148.04C42.83 148.69 41.9 148.78 41.25 148.21C40.6 147.64 40.55 146.71 41.12 146.06C41.74 145.35 42.63 145.31 43.29 145.87L43.31 145.89Z" fill="white"/>
<defs>
<radialGradient id="paint0_radial_50_866" cx="0" cy="0" r="1" gradientUnits="userSpaceOnUse" gradientTransform="translate(91.0225 91.0392) scale(83.481)">
<stop stop-opacity="0.8"/>
<stop offset="0.703" stop-opacity="0.6512"/>
<stop offset="0.9896" stop-opacity="0.0228"/>
<stop offset="1" stop-opacity="0"/>
</radialGradient>
</defs>
</svg>
